<?xml version="1.0" encoding="utf-8"?>
<!-- Generator: Adobe Illustrator 22.1.0, SVG Export Plug-In . SVG Version: 6.00 Build 0)  -->
<svg version="1.1" id="Layer_1" xmlns="http://www.w3.org/2000/svg" xmlns:xlink="http://www.w3.org/1999/xlink" x="0px" y="0px"
	 viewBox="0 0 24 26" style="enable-background:new 0 0 24 26;" xml:space="preserve">
<style type="text/css">
	.st0{fill:#FBE5F9;}
</style>
<g>
	<path id="path-1_2_" d="M2.7,18H0v-2.7h2.7v-2.7h2.7v2.7c6.2,0,12.4,0,18.7,0V18c-6.2,0-12.4,0-18.7,0v2.7H2.7V18z M8,23.3H5.3
		v-2.7H8V23.3z M10.7,26H8v-2.7h2.7V26z M13.3,28.7h-2.7V26h2.7V28.7z M8,10v2.7H5.3V10H8z M10.7,7.3V10H8V7.3H10.7z M13.3,4.7v2.7
		h-2.7V4.7H13.3z"/>
</g>
<title>arrow</title>
<desc>Created with Sketch.</desc>
<path id="path-1" d="M2.7,15.3H0v-2.7h2.7V10h2.7v2.7c6.2,0,12.4,0,18.7,0v2.7c-6.2,0-12.4,0-18.7,0V18H2.7V15.3z M8,20.7H5.3V18H8
	V20.7z M10.7,23.3H8v-2.7h2.7V23.3z M13.3,26h-2.7v-2.7h2.7V26z M8,7.3V10H5.3V7.3H8z M10.7,4.7v2.7H8V4.7H10.7z M13.3,2v2.7h-2.7V2
	H13.3z"/>
<g>
	<path id="path-1_1_" class="st0" d="M2.7,15.3H0v-2.7h2.7V10h2.7v2.7c6.2,0,12.4,0,18.7,0v2.7c-6.2,0-12.4,0-18.7,0V18H2.7V15.3z
		 M8,20.7H5.3V18H8V20.7z M10.7,23.3H8v-2.7h2.7V23.3z M13.3,26h-2.7v-2.7h2.7V26z M8,7.3V10H5.3V7.3H8z M10.7,4.7v2.7H8V4.7H10.7z
		 M13.3,2v2.7h-2.7V2H13.3z"/>
</g>
</svg>
